<?xml version="1.0" encoding="utf-8"?>
<!-- Generator: Adobe Illustrator 15.0.2, SVG Export Plug-In . SVG Version: 6.00 Build 0)  -->
<!DOCTYPE svg PUBLIC "-//W3C//DTD SVG 1.1//EN" "http://www.w3.org/Graphics/SVG/1.1/DTD/svg11.dtd">
<svg version="1.1"
	 id="svg2" xmlns:dc="http://purl.org/dc/elements/1.1/" xmlns:cc="http://creativecommons.org/ns#" xmlns:rdf="http://www.w3.org/1999/02/22-rdf-syntax-ns#" xmlns:svg="http://www.w3.org/2000/svg" xmlns:sodipodi="http://sodipodi.sourceforge.net/DTD/sodipodi-0.dtd" xmlns:inkscape="http://www.inkscape.org/namespaces/inkscape" sodipodi:version="0.32" inkscape:version="0.46" sodipodi:docname="swerty_eye.svg" inkscape:output_extension="org.inkscape.output.svg.inkscape"
	 xmlns="http://www.w3.org/2000/svg" xmlns:xlink="http://www.w3.org/1999/xlink" x="0px" y="0px" width="122.148px"
	 height="72.055px" viewBox="0 0 122.148 72.055" enable-background="new 0 0 122.148 72.055" xml:space="preserve">
<defs>
	
	
		<inkscape:perspective  inkscape:vp_z="744.09448 : 526.18109 : 1" inkscape:vp_y="0 : 1000 : 0" inkscape:vp_x="0 : 526.18109 : 1" sodipodi:type="inkscape:persp3d" id="perspective10" inkscape:persp3d-origin="372.04724 : 350.78739 : 1">
		</inkscape:perspective>
</defs>
<sodipodi:namedview  showguides="true" showgrid="false" objecttolerance="10" guidetolerance="10" gridtolerance="10000" borderopacity="1.0" inkscape:cy="743.73197" bordercolor="#666666" pagecolor="#ffffff" inkscape:cx="296.89701" inkscape:zoom="1.9163562" id="base" inkscape:window-y="-4" inkscape:window-x="-4" inkscape:window-height="712" inkscape:window-width="1024" inkscape:guide-bbox="true" inkscape:current-layer="layer1" inkscape:document-units="px" inkscape:pageshadow="2" inkscape:pageopacity="0.0">
	</sodipodi:namedview>
<g id="layer1" transform="translate(-173.213, -262.827)" inkscape:label="Layer 1" inkscape:groupmode="layer">
	<g id="g3178">
		
			<path id="path3166" sodipodi:cx="353.53552" sodipodi:cy="234.66452" sodipodi:rx="11.219209" sodipodi:ry="10.958297" sodipodi:start="4.6610829" sodipodi:end="10.935153" sodipodi:open="true" sodipodi:type="arc" fill="#0000DE" stroke="#D28420" stroke-miterlimit="10" d="
			M233.689,278.47c10.776-0.542,19.963,7.553,20.517,18.08c0.555,10.526-7.732,19.499-18.51,20.04
			c-10.777,0.541-19.963-7.553-20.517-18.08c-0.551-10.458,7.63-19.397,18.333-20.03"/>
		<path id="path3159" sodipodi:nodetypes="csssc" fill="none" stroke="#D28420" stroke-width="6.605" stroke-linecap="round" d="
			M234.787,331.579c-31.876,0.033-57.717-31.086-58.23-32.666c-1.244-3.828,25.388-32.751,57.265-32.784
			c31.877-0.033,58.688,30.042,58.231,32.667c-0.18,1.028-24.297,32.209-55.549,32.768"/>
		
			<linearGradient id="path3168_1_" gradientUnits="userSpaceOnUse" x1="416.7316" y1="248.2284" x2="431.4131" y2="263.2095" gradientTransform="matrix(1.7416 0 0 -1.7416 -501.2979 740.1488)">
			<stop  offset="0" style="stop-color:#FFFFFF"/>
			<stop  offset="1" style="stop-color:#FFFFFF;stop-opacity:0"/>
		</linearGradient>
		
			<path id="path3168" sodipodi:cx="353.53552" sodipodi:cy="234.66452" sodipodi:rx="11.219209" sodipodi:ry="10.958297" sodipodi:start="4.6610829" sodipodi:end="10.935153" sodipodi:open="true" sodipodi:type="arc" fill="url(#path3168_1_)" stroke="#D28420" stroke-miterlimit="10" d="
			M233.818,278.223c10.777-0.542,19.963,7.553,20.518,18.08c0.554,10.527-7.733,19.499-18.511,20.041
			c-10.777,0.541-19.963-7.555-20.517-18.081c-0.55-10.458,7.63-19.397,18.333-20.03"/>
		
			<path id="path3162" sodipodi:cx="353.53552" sodipodi:cy="234.66452" sodipodi:rx="11.219209" sodipodi:ry="10.958297" sodipodi:start="0.53396878" sodipodi:end="4.6519677" sodipodi:open="true" sodipodi:type="arc" fill="none" stroke="#D28420" stroke-width="6.605" stroke-linecap="round" d="
			M248.297,305.785c-4.366,7.213-13.892,9.602-21.276,5.338c-7.384-4.265-9.831-13.568-5.465-20.781
			c2.625-4.337,7.284-7.118,12.433-7.422"/>
	</g>
</g>
</svg>
