<?xml version="1.0" encoding="UTF-8" standalone="no"?>
<!-- Created with Inkscape (http://www.inkscape.org/) -->
<svg xmlns:dc="http://purl.org/dc/elements/1.1/" xmlns:cc="http://creativecommons.org/ns#" xmlns:rdf="http://www.w3.org/1999/02/22-rdf-syntax-ns#" xmlns:svg="http://www.w3.org/2000/svg" xmlns="http://www.w3.org/2000/svg" xmlns:sodipodi="http://sodipodi.sourceforge.net/DTD/sodipodi-0.dtd" xmlns:inkscape="http://www.inkscape.org/namespaces/inkscape" width="210mm" height="297mm" id="svg2" version="1.1" inkscape:version="0.48.0 r9654" sodipodi:docname="Ojo.svg">
  <defs id="defs4">
    <inkscape:path-effect effect="skeletal" id="path-effect2987" is_visible="true" pattern="M 0,5 C 0,2.24 2.24,0 5,0 7.76,0 10,2.24 10,5 10,7.76 7.76,10 5,10 2.24,10 0,7.76 0,5 z" copytype="single_stretched" prop_scale="1" scale_y_rel="false" spacing="0" normal_offset="0" tang_offset="0" prop_units="false" vertical_pattern="false" fuse_tolerance="0"/>
    <filter inkscape:collect="always" id="filter3803" x="-0.2055925" width="1.411185" y="-0.27551253" height="1.5510251">
      <feGaussianBlur inkscape:collect="always" stdDeviation="3.8685081" id="feGaussianBlur3805"/>
    </filter>
    <filter inkscape:collect="always" id="filter3844" x="-0.21552241" width="1.4310448" y="-0.14959092" height="1.2991818">
      <feGaussianBlur inkscape:collect="always" stdDeviation="7.1830941" id="feGaussianBlur3846"/>
    </filter>
  </defs>
  <sodipodi:namedview id="base" pagecolor="#ffffff" bordercolor="#666666" borderopacity="1.0" inkscape:pageopacity="0.0" inkscape:pageshadow="2" inkscape:zoom="0.56087621" inkscape:cx="521.58236" inkscape:cy="597.81377" inkscape:document-units="px" inkscape:current-layer="layer1" showgrid="false" inkscape:window-width="1280" inkscape:window-height="949" inkscape:window-x="0" inkscape:window-y="25" inkscape:window-maximized="1"/>
  <metadata id="metadata7">
    <rdf:RDF>
      <cc:Work rdf:about="">
        <dc:format>image/svg+xml</dc:format>
        <dc:type rdf:resource="http://purl.org/dc/dcmitype/StillImage"/>
        <dc:title/>
      </cc:Work>
    </rdf:RDF>
  </metadata>
  <g inkscape:label="Capa 1" inkscape:groupmode="layer" id="layer1">
    <g id="g3370">
      <path inkscape:connector-curvature="0" id="path2985" d="m 45.714286,486.64766 c -0.262879,-0.39442 1.053785,-3.75833 3.948105,-9.6162 2.894321,-5.8579 7.376816,-14.20335 13.606921,-24.19713 6.230105,-9.99377 14.218946,-21.6306 24.122017,-33.7941 9.903071,-12.1635 21.729571,-24.84831 35.476651,-36.73999 1e-5,-10e-6 1e-5,-10e-6 2e-5,-10e-6 12.80972,-11.0767 27.24071,-21.48941 43.1125,-30.52788 15.87179,-9.03848 33.18521,-16.69825 51.56616,-22.55062 1e-5,0 2e-5,0 3e-5,0 15.69959,-5.00276 32.17984,-8.74065 49.25208,-11.12672 17.07223,-2.38608 34.73588,-3.42099 52.76632,-3.17832 7.72762,0.1027 15.52534,0.43633 23.38025,0.99729 26.91391,1.92205 52.9723,6.39795 77.71414,12.32976 34.0142,8.15371 65.57759,18.98284 93.78723,30.56395 28.20963,11.58114 53.06862,23.89649 73.79151,35.16166 0,0 0,0 0,0 21.74113,11.81693 38.942,22.56453 50.71441,30.59057 0,0 0,0 0,0 5.99159,4.08487 10.58123,7.47078 13.65086,9.955 0,0 0,0 0,0 1.54663,1.25167 2.7085,2.27531 3.46993,3.04539 0,0 0,0 0,0 0.38207,0.38641 0.66362,0.70917 0.8425,0.965 0,0 0,0 0,0 0,0 0,0 0,0 0.0705,0.20679 0.12951,0.33839 0.16977,0.42303 0,0 0,0 0,0 0.0153,0.062 0.0296,0.0975 0.04,0.11768 0.005,0.01 0.009,0.0167 0.0124,0.02 0.005,0.005 0.005,0.005 0.005,0.005 0,0 0,0 -3.6e-4,0.001 -0.009,-0.005 -0.0144,-0.005 -0.0223,-0.003 -0.0159,0.001 -0.041,0.0117 -0.0779,0.0383 0,0 0,0 0,0 -0.0642,0.015 -0.1612,0.0413 -0.29796,0.10953 0,0 0,0 0,0 0,0 0,0 0,0 -0.23494,-0.0208 -0.5713,-0.10919 -1.00752,-0.26254 0,0 0,0 0,0 -0.86931,-0.3056 -2.13401,-0.86826 -3.78032,-1.66482 0,0 0,0 0,0 -3.26744,-1.58093 -8.03381,-4.08081 -14.18632,-7.30961 0,0 0,0 0,0 -12.08835,-6.34386 -29.51426,-15.50431 -51.39344,-25.90487 0,0 0,0 0,0 -20.85673,-9.9129 -45.74886,-21.01888 -73.8737,-31.59706 -28.12484,-10.57819 -59.48436,-20.61155 -93.19061,-28.24921 -24.51145,-5.55329 -50.25824,-9.81149 -76.79574,-11.70722 -7.74504,-0.55327 -15.42939,-0.89567 -23.04134,-1.02282 -17.76126,-0.29349 -35.12908,0.58098 -51.89939,2.71119 -16.7703,2.13021 -32.94273,5.517 -48.35116,10.0921 -1e-5,2e-5 -1e-5,2e-5 -2e-5,2e-5 -18.03235,5.35898 -35.01871,12.36484 -50.62093,20.65293 -15.60222,8.28809 -29.82155,17.85491 -42.50493,28.05205 -10e-6,0 -10e-6,0 -2e-5,0 -13.60021,10.92949 -25.41195,22.60709 -35.417124,33.78782 -10.005169,11.18071 -18.212773,21.85996 -24.752359,30.95089 -6.539587,9.09092 -11.422192,16.5882 -14.772715,21.63647 -3.350524,5.04826 -5.179517,7.6401 -5.442396,7.24568 z" style="fill:#000000;fill-rule:evenodd;stroke:none"/>
      <path style="fill:#000000;fill-rule:evenodd;stroke:none" d="m 53.733454,521.8614 c -0.26751,0.31502 0.967291,2.41549 3.711893,5.9741 2.744601,3.55864 7.009529,8.5693 12.968827,14.42757 5.959295,5.85826 13.62406,12.55868 23.169903,19.30656 9.545843,6.74788 20.981973,13.538 34.331393,19.46536 1e-5,0 1e-5,0 2e-5,0 12.43927,5.52034 26.49357,10.31618 41.99856,13.92796 15.505,3.61177 32.46159,6.03628 50.50856,7.0398 1e-5,0 3e-5,0 4e-5,-10e-6 15.41425,0.85998 31.62472,0.71999 48.44679,-0.44879 16.82201,-1.16876 34.25502,-3.36577 52.07557,-6.50332 7.63765,-1.34382 15.3491,-2.85826 23.12152,-4.53874 26.63132,-5.75794 52.46755,-13.13426 77.03155,-21.29667 33.76968,-11.22059 65.17037,-23.88052 93.27204,-36.50595 28.10165,-12.62547 52.90702,-25.20474 73.60484,-36.37914 0,0 0,0 0,0 21.71481,-11.72227 38.92237,-21.95991 50.71255,-29.4284 0,0 0,0 0,0 6.00064,-3.80109 10.60224,-6.88974 13.68422,-9.10679 0,0 0,0 0,0 1.55284,-1.11705 2.72101,-2.01363 3.48853,-2.66957 0,0 0,0 0,0 0.38513,-0.32914 0.66967,-0.59788 0.85146,-0.80359 0,0 0,0 0,0 0,0 0,0 0,0 0.0738,-0.15406 0.13464,-0.25445 0.17608,-0.31939 0,0 0,0 0,0 0.0163,-0.0452 0.0311,-0.072 0.0419,-0.0877 0.003,-0.007 0.009,-0.013 0.0124,-0.0158 0.004,-0.004 0.004,-0.004 0.004,-0.004 0,0 0,0 -3.4e-4,-6.4e-4 -0.009,0.005 -0.0143,0.005 -0.0221,0.006 -0.0156,0.002 -0.0403,-6.6e-4 -0.0762,-0.0135 0,0 0,0 0,0 -0.0631,10e-4 -0.15848,-0.002 -0.29226,-0.0264 0,0 0,0 0,0 0,0 0,0 0,0 -0.23254,0.053 -0.56664,0.16933 -1.00068,0.34684 0,0 0,0 0,0 -0.86497,0.35373 -2.12568,0.94969 -3.76808,1.76964 0,0 0,0 0,0 -3.25964,1.62738 -8.01846,4.13474 -14.16125,7.37262 0,0 0,0 0,0 -12.06925,6.36171 -29.46793,15.54303 -51.29128,26.31231 0,0 0,0 0,0 -20.80347,10.2649 -45.61777,22.01651 -73.61593,33.93707 -27.99814,11.92058 -59.18174,23.99871 -92.63697,34.81306 -24.32892,7.86369 -49.85296,15.03871 -76.11182,20.71651 -7.66371,1.65707 -15.26333,3.15889 -22.78716,4.5005 -17.55557,3.1282 -34.69941,5.38699 -51.22815,6.68229 -16.52874,1.29532 -32.442,1.62645 -47.57695,1.01312 -3e-5,-10e-6 -3e-5,-10e-6 -4e-5,-10e-6 -17.71221,-0.72107 -34.35851,-2.74897 -49.61192,-5.88823 -15.2534,-3.13924 -29.11518,-7.38723 -41.44693,-12.32246 -1e-5,0 -1e-5,0 -2e-5,0 -13.22325,-5.2887 -24.66459,-11.38742 -34.33067,-17.44145 -9.666058,-6.05403 -17.565823,-12.05872 -23.848682,-17.24404 -6.282861,-5.18531 -10.95982,-9.54577 -14.171122,-12.47148 -3.211308,-2.92574 -4.967529,-4.40993 -5.23504,-4.09491 z" id="path3008" inkscape:connector-curvature="0"/>
      <path transform="matrix(1.37037, 0, 0, 1.37037, -72.1693, -564.282)" d="m 302.85714,755.2193 a 77.14286,77.14286 0 1 1 -154.28572,0 77.14286,77.14286 0 1 1 154.28572,0 z" sodipodi:ry="77.14286" sodipodi:rx="77.14286" sodipodi:cy="755.2193" sodipodi:cx="225.71428" id="path3010" style="fill:#000000" sodipodi:type="arc"/>
      <path sodipodi:type="arc" style="fill:#ffffff" id="path3012" sodipodi:cx="225.71428" sodipodi:cy="755.2193" sodipodi:rx="77.14286" sodipodi:ry="77.14286" d="m 302.85714,755.2193 a 77.14286,77.14286 0 1 1 -154.28572,0 77.14286,77.14286 0 1 1 154.28572,0 z" transform="matrix(0.407407, 0, 0, 0.407407, 112.372, 174.85)"/>
      <path inkscape:connector-curvature="0" id="path3014" d="m 267.41161,381.52017 c -2.99682,0 -5.90758,0.35199 -8.69575,1.03004 1.99822,18.36998 17.55117,32.66868 36.45274,32.66868 2.99965,0 5.91602,-0.36159 8.70659,-1.04088 -2.00296,-18.36498 -17.56558,-32.65784 -36.46358,-32.65784 z" style="fill:#ffffff;filter:url(#filter3803);opacity:0.81226054"/>
      <path transform="matrix(0, 1, -1, 0, 733.816, 320.992)" inkscape:connector-curvature="0" id="path3807" d="m 236.46962,469.78215 c 2.17863,6.77996 3.56199,13.93882 4.06337,21.36435 3.08709,45.72082 -28.82771,85.70806 -72.85448,93.75884 3.12218,0.17796 6.27057,0.15902 9.47148,-0.0571 41.66059,-2.81295 73.15581,-38.86927 70.34286,-80.52987 -0.85634,-12.68266 -4.78536,-24.41926 -11.02323,-34.53621 z" style="opacity:0.90038309;fill:#ffffff;filter:url(#filter3844)"/>
    </g>
  </g>
</svg>